<svg width="280" height="59" viewBox="0 0 280 59" fill="none" xmlns="http://www.w3.org/2000/svg">
<g clip-path="url(#clip0)">
<path d="M85.0361 30.3702L81.8057 23.0164L78.4803 30.3702H85.0361ZM86.3662 33.3308H77.0551L74.6798 38.488H71.0693L81.8057 15.6626L92.257 38.488H88.6465L86.3662 33.3308ZM110.404 26.9321H119.335V27.6961C119.335 29.4152 119.05 30.8477 118.765 31.9938C118.48 33.1398 117.815 34.2859 116.865 35.2409C114.87 37.533 112.304 38.7745 109.169 38.7745C106.224 38.7745 103.563 37.724 101.378 35.4319C99.1928 33.1398 98.1477 30.4657 98.1477 27.4096C98.1477 24.3535 99.1928 21.4883 101.473 19.3873C103.658 17.0952 106.414 16.0446 109.454 16.0446C111.164 16.0446 112.685 16.4267 114.205 17.0952C115.63 17.8592 116.96 18.9098 118.385 20.4378L116.01 22.7299C114.205 20.3423 112.019 19.1008 109.549 19.1008C107.269 19.1008 105.369 19.9603 103.848 21.4884C102.328 23.0164 101.473 25.022 101.473 27.4096C101.473 29.7972 102.328 31.8983 104.133 33.4263C105.844 34.8589 107.459 35.6229 109.359 35.6229C111.069 35.6229 112.495 35.0499 113.635 33.9038C114.965 32.8533 115.63 31.5162 115.82 29.8927H110.404V26.9321ZM129.787 27.3141C129.787 29.7017 130.642 31.8028 132.162 33.3308C133.682 34.8589 135.677 35.7184 137.768 35.7184C140.048 35.7184 141.948 34.8589 143.468 33.3308C144.989 31.8028 145.844 29.7017 145.844 27.4096C145.844 25.1175 145.084 23.1119 143.563 21.4884C142.043 19.9603 140.048 19.1008 137.863 19.1008C135.582 19.1008 133.682 19.9603 132.162 21.4884C130.547 23.1119 129.787 25.022 129.787 27.3141ZM126.461 27.3141C126.461 24.1625 127.506 21.5839 129.787 19.3873C132.067 17.1907 134.727 16.1401 137.768 16.1401C140.903 16.1401 143.468 17.1907 145.749 19.4828C148.029 21.7749 149.074 24.449 149.074 27.5051C149.074 30.6567 148.029 33.2353 145.749 35.5274C143.468 37.724 140.808 38.7745 137.578 38.7745C134.822 38.7745 132.352 37.8195 130.072 35.9094C127.601 33.6173 126.461 30.8477 126.461 27.3141ZM160.666 26.4545H161.711C164.846 26.4545 166.366 25.213 166.366 22.8254C166.366 20.5333 164.846 19.4828 161.806 19.4828H160.571C160.666 19.4828 160.666 26.4545 160.666 26.4545ZM164.751 29.0331L171.402 38.3925H167.316L161.141 29.4152H160.571V38.3925H157.34V16.5222H161.141C163.991 16.5222 166.081 17.0952 167.316 18.2412C168.742 19.4828 169.502 21.0108 169.502 23.0164C169.502 24.5445 169.027 25.8815 168.171 27.0276C167.316 27.8871 166.176 28.6511 164.751 29.0331ZM190.214 29.8927L186.984 22.4434L183.658 29.8927H190.214ZM191.544 32.9488H182.138L179.763 38.2015H176.152L186.889 14.8986L197.34 38.2015H193.73L191.544 32.9488ZM219.098 17.5727V21.5839C217.198 20.0558 215.297 19.1963 213.207 19.1963C210.927 19.1963 209.122 20.0558 207.601 21.5839C206.081 23.1119 205.321 25.213 205.321 27.5051C205.321 29.7972 206.081 31.7072 207.601 33.2353C209.122 34.7634 211.117 35.6229 213.207 35.6229C214.442 35.6229 215.392 35.3364 216.152 35.0499C216.628 34.7634 217.103 34.5724 217.578 34.2859C218.053 33.9038 218.528 33.5218 219.098 33.0443V37.0555C217.198 38.106 215.297 38.5835 213.207 38.5835C210.072 38.5835 207.506 37.533 205.226 35.3364C203.041 33.1398 201.996 30.5612 201.996 27.4096C201.996 24.64 202.946 22.1569 204.751 19.9603C207.031 17.2862 209.882 15.9491 213.492 15.9491C215.392 16.0446 217.293 16.5222 219.098 17.5727ZM229.454 27.3141C229.454 29.7017 230.309 31.8028 231.829 33.3308C233.35 34.8589 235.345 35.7184 237.435 35.7184C239.715 35.7184 241.616 34.8589 243.136 33.3308C244.656 31.8028 245.511 29.7017 245.511 27.4096C245.511 25.1175 244.751 23.1119 243.136 21.4884C241.616 19.9603 239.62 19.1008 237.435 19.1008C235.25 19.1008 233.255 19.9603 231.734 21.4884C230.214 23.1119 229.454 25.022 229.454 27.3141ZM226.224 27.3141C226.224 24.1625 227.269 21.5839 229.549 19.3873C231.829 17.1907 234.49 16.1401 237.53 16.1401C240.666 16.1401 243.231 17.1907 245.511 19.4828C247.791 21.7749 248.837 24.449 248.837 27.5051C248.837 30.6567 247.791 33.2353 245.511 35.5274C243.231 37.724 240.571 38.7745 237.34 38.7745C234.585 38.7745 231.924 37.8195 229.834 35.9094C227.364 33.6173 226.224 30.8477 226.224 27.3141ZM256.247 38.3925L260.808 14.8031L268.219 31.8983L276.01 14.8031L280.095 38.3925H276.77L274.775 25.213L268.314 39.443L262.138 25.213L259.763 38.3925H256.247ZM72.9696 45.7463H77.1501V46.7013H75.7249V53.6731H74.4898V46.7013H73.0646V45.7463H72.9696ZM82.4708 45.7463H83.8009V48.8979H85.7012V45.7463H87.0313V53.6731H85.7012V49.662H83.8009V53.6731H82.4708V45.7463ZM92.827 45.7463H96.1525V46.6058H94.0622V49.0889H95.9624V49.9485H94.0622V52.6226H96.2475V53.4821H92.9221C92.8271 53.6731 92.827 45.7463 92.827 45.7463ZM112.209 45.8418V46.8924C111.829 46.6058 111.449 46.5103 111.164 46.5103C110.784 46.5103 110.594 46.6058 110.309 46.7968C110.024 47.0834 109.929 47.2743 109.929 47.5609C109.929 47.8474 110.024 48.0384 110.214 48.3249L110.594 48.7069C110.879 48.8024 110.974 49.0889 111.354 49.2799C111.829 49.7575 112.209 50.1395 112.399 50.5215C112.685 50.9035 112.685 51.2855 112.685 51.763C112.685 52.336 112.399 52.8136 112.114 53.2911C111.734 53.6731 111.164 53.8641 110.594 53.8641C110.119 53.8641 109.644 53.7686 109.169 53.4821V52.4316C109.644 52.7181 110.024 52.8136 110.404 52.8136C110.784 52.8136 110.974 52.7181 111.259 52.5271C111.544 52.2406 111.544 52.0495 111.544 51.763C111.544 51.4765 111.449 51.19 111.259 50.999L110.879 50.617L110.404 50.1395C110.024 49.853 109.834 49.6619 109.549 49.3754L109.074 48.8979C108.789 48.5159 108.789 48.1339 108.789 47.6564C108.789 47.0834 109.074 46.6058 109.359 46.2238C109.739 45.8418 110.214 45.6508 110.879 45.6508C111.354 45.5553 111.829 45.7463 112.209 45.8418ZM118.765 45.7463H119.81L120.666 48.9934L120.951 50.235C121.046 50.617 121.046 51.0945 121.236 51.572V51.381L121.521 50.5215L121.616 49.662L121.711 49.0889L122.471 45.9373H123.516L124.371 53.8641H123.136L122.851 51.19V50.808V50.5215L122.756 49.4709V48.5159V48.4204V48.5159C122.756 48.8024 122.661 48.8979 122.661 48.9934C122.661 49.0889 122.661 49.2799 122.566 49.3754L122.471 50.1395L122.376 50.426L121.521 53.9596H120.666L119.905 50.999C119.81 50.617 119.62 50.1395 119.62 49.7575C119.525 49.3755 119.525 48.8979 119.335 48.4204L118.955 53.8641H117.815L118.765 45.7463ZM132.637 51.2855L132.352 49.9485C132.067 49.0889 131.972 48.1339 131.877 47.1789C131.877 47.6564 131.782 48.1339 131.592 48.6114C131.497 49.0889 131.307 49.5665 131.212 50.1395L130.927 51.0945C131.117 51.2855 132.637 51.2855 132.637 51.2855ZM131.402 45.7463H132.352L134.347 53.6731H133.017L132.637 52.1451H130.737L130.357 53.6731H129.217L131.402 45.7463ZM139.763 45.7463H141.093V52.7181H143.088V53.5776H139.763V45.7463ZM148.504 45.7463H149.834V52.7181H151.829V53.5776H148.504V45.7463ZM168.076 45.8418V46.7968C167.696 46.7013 167.506 46.5103 167.221 46.5103C166.841 46.5103 166.651 46.6058 166.461 46.7968C166.176 46.8923 166.081 47.1789 165.986 47.3699C165.891 47.6564 165.701 47.9429 165.606 48.3249C165.511 48.7069 165.511 49.1844 165.511 49.7575C165.511 51.6675 166.081 52.6226 167.316 52.6226C167.601 52.6226 167.791 52.6226 168.076 52.5271V53.4821C167.696 53.5776 167.506 53.7686 167.031 53.7686C165.131 53.7686 164.181 52.4316 164.181 49.7575C164.181 48.3249 164.466 47.2743 164.941 46.6058C165.416 45.8418 166.176 45.5553 167.126 45.5553C167.316 45.5553 167.696 45.7463 168.076 45.8418ZM176.533 51.2855L176.247 49.9485C175.962 49.0889 175.867 48.1339 175.772 47.1789C175.772 47.6564 175.772 48.1339 175.582 48.6114C175.487 49.0889 175.297 49.5665 175.202 50.1395L174.917 51.0945C175.012 51.2855 176.533 51.2855 176.533 51.2855ZM175.392 45.7463H176.342L178.338 53.6731H177.008L176.723 52.0495H174.822L174.442 53.5776H173.207L175.392 45.7463ZM184.894 49.1844C185.369 49.1844 185.749 49.0889 185.939 48.8979C186.129 48.7069 186.319 48.4204 186.319 47.9429C186.319 47.4654 186.224 47.0834 186.034 46.8924C185.939 46.6058 185.559 46.5103 185.084 46.5103H184.894V49.1844ZM183.658 45.7463H185.274C186.129 45.7463 186.699 45.8418 187.079 46.2238C187.459 46.6058 187.649 47.0833 187.649 47.9429C187.649 48.9934 187.269 49.6619 186.604 49.9485C186.224 50.044 185.654 50.235 185.084 50.235V53.7686H183.753L183.658 45.7463ZM200.38 45.7463H203.706V46.6058H201.521V49.0889H203.421V49.9485H201.521V52.6226H203.706V53.4821H200.38V45.7463ZM210.737 49.1844C211.212 49.1844 211.592 49.0889 211.782 48.8979C212.067 48.8024 212.162 48.4204 212.162 47.9429C212.162 47.4654 212.067 47.0834 211.877 46.8924C211.782 46.6058 211.402 46.5103 210.927 46.5103H210.642C210.737 46.5103 210.737 49.1844 210.737 49.1844ZM209.502 45.7463H211.212C212.067 45.7463 212.637 45.8418 213.017 46.2238C213.397 46.6058 213.587 47.0833 213.587 47.9429C213.587 48.9934 213.207 49.6619 212.542 49.9485C212.162 50.044 211.592 50.235 211.022 50.235V53.7686H209.597V45.7463H209.502ZM219.003 53.6731H220.333V45.7463H219.003V53.6731ZM230.024 45.8418V46.7968C229.644 46.7013 229.454 46.5103 229.169 46.5103C228.789 46.5103 228.599 46.6058 228.409 46.7968C228.124 46.8923 228.029 47.1789 227.839 47.3699C227.744 47.6564 227.554 47.9429 227.459 48.3249C227.364 48.7069 227.364 49.1844 227.364 49.7575C227.364 51.6675 227.934 52.6226 229.169 52.6226C229.454 52.6226 229.644 52.6226 229.929 52.5271V53.4821C229.549 53.5776 229.359 53.7686 228.884 53.7686C226.984 53.7686 226.034 52.4316 226.034 49.7575C226.034 48.3249 226.319 47.2743 226.794 46.6058C227.269 45.8418 228.029 45.5553 228.979 45.5553C229.264 45.5553 229.644 45.7463 230.024 45.8418ZM235.63 45.7463H238.955V46.6058H236.96V49.0889H238.86V49.9485H236.96V52.6226H239.145V53.4821H235.82C235.63 53.6731 235.63 45.7463 235.63 45.7463ZM244.751 45.7463H245.986L247.316 48.8979C247.696 49.7574 248.076 50.7125 248.266 51.763C248.171 51.19 247.981 50.5215 247.981 50.044C247.981 49.5664 247.886 49.0889 247.886 48.6114V45.6508H249.217V53.5776H247.981L246.556 49.9485C246.461 49.5664 246.271 49.1844 246.176 48.9934C246.081 48.6114 245.891 48.2294 245.796 47.9429V47.8474C245.796 47.7519 245.796 47.7519 245.701 47.5609V47.9429L245.796 48.8024L245.891 49.7575V50.3305L245.986 53.8641H244.656V45.7463H244.751ZM254.442 45.7463H258.623V46.7013H257.198V53.6731H255.962V46.7013H254.537L254.442 45.7463ZM263.848 45.7463H267.174V46.6058H265.084V49.0889H266.984V49.9485H265.084V52.6226H267.269V53.4821H263.943C263.848 53.6731 263.848 45.7463 263.848 45.7463ZM274.3 49.1844C274.775 49.1844 275.155 49.0889 275.345 48.8979C275.63 48.6114 275.725 48.4204 275.725 47.9429C275.725 47.6564 275.725 47.4654 275.63 47.3699C275.63 47.0834 275.535 46.9879 275.345 46.8924C275.155 46.7969 275.06 46.6058 274.965 46.6058C274.87 46.5103 274.585 46.5103 274.49 46.5103H274.205V49.1844H274.3ZM272.97 45.7463H274.68C275.44 45.7463 275.915 45.8418 276.2 46.1283C276.675 46.5103 276.77 47.0834 276.77 47.8474C276.77 48.4204 276.675 48.8024 276.39 49.1844C276.105 49.5665 275.82 49.7575 275.44 49.7575L277.245 53.5776H275.915L274.205 49.7575V53.5776H272.875C272.97 53.6731 272.97 45.7463 272.97 45.7463Z" fill="white"/>
<path d="M63.5629 0L56.8171 3.24712L55.2969 7.44928L59.3824 5.5392L55.677 14.8986L47.5059 11.938L41.5202 30.0837L11.0214 34.2858L0 58.1618H7.98099L15.677 41.3531L45.2257 37.1509L51.2114 19.0052L57.9572 21.6793L63.3729 7.25829L65.0831 10.9829L66.6033 6.78077L63.5629 0Z" fill="white"/>
<path d="M43.9901 39.4431L50.5459 53.7686H42.4699L36.6742 40.3981L43.9901 39.4431ZM26.6029 0.0955811L39.8096 28.1737L32.5887 29.2242L26.4129 16.9042L19.9521 31.0388L11.5911 32.0893L26.6029 0.0955811Z" fill="white"/>
</g>
<defs>
<clipPath id="clip0">
<rect width="280" height="58.1618" fill="white"/>
</clipPath>
</defs>
</svg>
